<svg width="34" height="24" viewBox="0 0 34 24" fill="none" xmlns="http://www.w3.org/2000/svg">
<g clip-path="url(#clip0_1_84)">
<path d="M15.7855 4.41875C16.2487 5.00972 16.7279 5.68056 17.223 6.43125C17.6702 7.07014 18.1254 7.77292 18.5886 8.53958L18.6126 8.56354L16.6001 11.5823V11.5583L16.3605 11.175C12.7907 5.16146 11.1376 3.48438 9.00528 3.48438C9.00528 3.48438 8.9973 3.48438 8.98132 3.48438L9.02924 0.25C9.02924 0.25 9.03723 0.25 9.0532 0.25C11.4251 0.25 13.4136 1.4 15.7855 4.41875V4.41875Z" fill="url(#paint0_linear_1_84)"/>
<path d="M9.05316 0.25L9.00524 3.48437C9.00524 3.48437 8.99726 3.48437 8.98128 3.48437C7.78337 3.48437 6.68128 4.34688 5.79482 5.68854L2.9917 4.17917C2.9917 4.17917 2.9917 4.17118 2.9917 4.15521C4.52503 1.80729 6.63337 0.273958 9.0292 0.25C9.0292 0.25 9.03719 0.25 9.05316 0.25V0.25Z" fill="url(#paint1_linear_1_84)"/>
<path d="M5.79482 5.68763C4.95628 6.95742 4.30941 8.63451 3.97399 10.4314C3.97399 10.4474 3.97399 10.4633 3.97399 10.4793L0.835449 9.73659C0.835449 9.72062 0.835449 9.71263 0.835449 9.71263C1.24274 7.65221 1.98545 5.73555 2.9917 4.17826C2.9917 4.17826 2.9917 4.17027 2.9917 4.1543L5.79482 5.68763Z" fill="url(#paint2_linear_1_84)"/>
<path d="M3.97396 10.4815C3.79826 11.3919 3.71042 12.3183 3.71042 13.2607C3.71042 13.3246 3.71042 13.3885 3.71042 13.4523C3.71042 13.4683 3.71042 13.4763 3.71042 13.4763L0.5 13.1888C0.5 13.1888 0.5 13.1808 0.5 13.1648C0.5 12.0148 0.619792 10.8648 0.835417 9.7388C0.835417 9.72283 0.835417 9.71484 0.835417 9.71484L3.97396 10.4336C3.97396 10.4496 3.97396 10.4655 3.97396 10.4815V10.4815Z" fill="url(#paint3_linear_1_84)"/>
<path d="M3.83021 14.5057L0.691667 15.2245C0.675694 15.2245 0.667708 15.2165 0.667708 15.2005C0.555903 14.5457 0.5 13.8748 0.5 13.188C0.5 13.188 0.5 13.18 0.5 13.1641L3.71042 13.4516C3.71042 13.4675 3.71042 13.4755 3.71042 13.4755C3.72639 13.8109 3.76632 14.1464 3.83021 14.4818C3.83021 14.4977 3.83021 14.5057 3.83021 14.5057V14.5057Z" fill="url(#paint4_linear_1_84)"/>
<path d="M4.57318 16.1576L2.08151 18.3138C2.06554 18.3138 2.05755 18.3058 2.05755 18.2898C1.38672 17.5232 0.907552 16.469 0.691927 15.2232C0.675955 15.2232 0.667969 15.2152 0.667969 15.1992L3.83047 14.4805C3.83047 14.4964 3.83047 14.5044 3.83047 14.5044C3.95026 15.2232 4.2138 15.7742 4.54922 16.1576C4.56519 16.1576 4.57318 16.1576 4.57318 16.1576V16.1576Z" fill="url(#paint5_linear_1_84)"/>
<path d="M15.3785 9.54661C14.492 11.1279 13.1982 13.4039 13.1982 13.4039C10.0837 18.8424 8.3347 19.9924 5.89095 19.9924C4.28574 19.9924 2.99199 19.3935 2.08158 18.3154C2.0656 18.3154 2.05762 18.3074 2.05762 18.2914L4.54928 16.1591C4.56526 16.1591 4.57324 16.1591 4.57324 16.1591C4.95658 16.5664 5.43574 16.782 6.01074 16.782C7.42428 16.782 8.31074 15.8956 10.8264 11.9424C10.8264 11.9424 11.9764 10.1216 13.8691 7.22266C14.3243 7.89349 14.8274 8.66016 15.3785 9.54661V9.54661Z" fill="#0082FB"/>
<path d="M18.9477 4.17786C18.9477 4.17786 18.9397 4.18585 18.9237 4.20182C18.3966 4.75286 17.8216 5.49557 17.2466 6.42995C16.7355 5.67925 16.2484 5.00842 15.7852 4.41745C16.2324 3.8105 16.7115 3.22752 17.2227 2.66849C17.2227 2.66849 17.2306 2.6605 17.2466 2.64453L18.9477 4.17786Z" fill="url(#paint6_linear_1_84)"/>
<path d="M26.447 2.38229L24.4824 4.13125C24.4664 4.13125 24.4584 4.13125 24.4584 4.13125C23.6199 3.26875 22.6616 2.78958 21.6553 2.78958C20.697 2.78958 19.8345 3.24479 18.948 4.17917C18.948 4.17917 18.94 4.18715 18.9241 4.20312L17.223 2.66979C17.223 2.66979 17.231 2.66181 17.247 2.64583C18.5886 1.23229 20.0741 0.25 21.847 0.25C23.5241 0.25 25.1053 1.04063 26.423 2.35833C26.439 2.37431 26.447 2.38229 26.447 2.38229V2.38229Z" fill="#0082FB"/>
<path d="M30.2564 12.7793L27.4054 12.7553C27.4054 12.7553 27.4054 12.7474 27.4054 12.7314C27.3095 9.0418 26.1595 5.85534 24.4825 4.13034C24.4665 4.13034 24.4585 4.13034 24.4585 4.13034L26.4231 2.35742C26.4391 2.37339 26.447 2.38138 26.447 2.38138C28.6752 4.63346 30.1606 8.4668 30.2564 12.7314C30.2564 12.7474 30.2564 12.7633 30.2564 12.7793Z" fill="url(#paint7_linear_1_84)"/>
<path d="M30.2563 13.0676C30.2563 15.0801 29.849 16.7093 29.0824 17.9072C29.0664 17.9072 29.0584 17.9152 29.0584 17.9311L26.9501 15.727C26.9501 15.711 26.9501 15.703 26.9501 15.703C27.2615 15.1041 27.4053 14.2895 27.4053 13.2832C27.4053 13.1075 27.4053 12.9318 27.4053 12.7561C27.4053 12.7561 27.4053 12.7481 27.4053 12.7322H30.2563C30.2563 12.7481 30.2563 12.7641 30.2563 12.7801C30.2563 12.8759 30.2563 12.9718 30.2563 13.0676V13.0676Z" fill="url(#paint8_linear_1_84)"/>
<path d="M29.0824 17.9073C29.0664 17.9073 29.0584 17.9153 29.0584 17.9313C29.0425 17.9472 29.0265 17.9712 29.0105 18.0031C28.9786 18.0351 28.9546 18.075 28.9387 18.1229C28.5074 18.6979 27.9564 19.1771 27.3095 19.5125C27.2935 19.5125 27.2775 19.5205 27.2616 19.5365C27.2137 19.5524 27.1737 19.5684 27.1418 19.5844C27.03 19.6323 26.9102 19.6802 26.7824 19.7281L25.8001 16.6854C26.3032 16.5417 26.6866 16.2062 26.9501 15.7271C26.9501 15.7111 26.9501 15.7031 26.9501 15.7031L29.0824 17.9073Z" fill="url(#paint9_linear_1_84)"/>
<path d="M25.824 16.6854L26.8063 19.7281C26.2553 19.8958 25.6803 19.9917 25.1292 19.9917C24.4584 19.9917 23.8595 19.8958 23.3084 19.7041L24.2907 16.6135C24.5782 16.7333 24.8897 16.7812 25.2011 16.7812C25.4088 16.7812 25.6164 16.7493 25.824 16.6854V16.6854Z" fill="url(#paint10_linear_1_84)"/>
<path d="M24.3386 16.6141L23.3324 19.7286C22.4938 19.4411 21.7272 18.9141 20.9366 18.0755C20.9366 18.0595 20.9286 18.0516 20.9126 18.0516L23.1886 15.6797C23.2046 15.6957 23.2126 15.7036 23.2126 15.7036C23.6199 16.1828 23.9553 16.4703 24.3386 16.6141V16.6141Z" fill="url(#paint11_linear_1_84)"/>
<path d="M23.2126 15.7026L20.9366 18.0745C20.9366 18.0585 20.9286 18.0505 20.9126 18.0505C19.9782 17.0443 19.0199 15.6068 17.822 13.6422L16.6001 11.5818V11.5578L18.5886 8.53906L18.6126 8.56302L20.3376 11.438C21.6793 13.5703 22.5178 14.888 23.1886 15.6786C23.2046 15.6946 23.2126 15.7026 23.2126 15.7026Z" fill="url(#paint12_linear_1_84)"/>
</g>
<defs>
<linearGradient id="paint0_linear_1_84" x1="17.2709" y1="10.3604" x2="10.6344" y2="1.61563" gradientUnits="userSpaceOnUse">
<stop stop-color="#0867DF"/>
<stop offset="0.5" stop-color="#0668E1"/>
<stop offset="0.9" stop-color="#0064E0"/>
</linearGradient>
<linearGradient id="paint1_linear_1_84" x1="4.30941" y1="4.70625" x2="8.86149" y2="1.23229" gradientUnits="userSpaceOnUse">
<stop offset="0.1" stop-color="#0064DF"/>
<stop offset="1" stop-color="#0064E0"/>
</linearGradient>
<linearGradient id="paint2_linear_1_84" x1="2.36878" y1="9.78451" x2="4.18962" y2="5.18451" gradientUnits="userSpaceOnUse">
<stop stop-color="#0072EC"/>
<stop offset="0.7" stop-color="#0064DF"/>
</linearGradient>
<linearGradient id="paint3_linear_1_84" x1="2.10521" y1="13.1169" x2="2.32083" y2="10.2898" gradientUnits="userSpaceOnUse">
<stop offset="0.1" stop-color="#007CF6"/>
<stop offset="1" stop-color="#0072EC"/>
</linearGradient>
<linearGradient id="paint4_linear_1_84" x1="2.225" y1="14.6495" x2="2.08125" y2="13.5234" gradientUnits="userSpaceOnUse">
<stop offset="0.1" stop-color="#007FF9"/>
<stop offset="1" stop-color="#007CF6"/>
</linearGradient>
<linearGradient id="paint5_linear_1_84" x1="2.15339" y1="14.9357" x2="3.08776" y2="16.9482" gradientUnits="userSpaceOnUse">
<stop offset="0.1" stop-color="#007FF9"/>
<stop offset="1" stop-color="#0082FB"/>
</linearGradient>
<linearGradient id="paint6_linear_1_84" x1="16.6716" y1="5.25599" x2="17.9174" y2="3.53099" gradientUnits="userSpaceOnUse">
<stop offset="0.3" stop-color="#007FF8"/>
<stop offset="0.9" stop-color="#0082FB"/>
</linearGradient>
<linearGradient id="paint7_linear_1_84" x1="26.1835" y1="3.0043" x2="28.771" y2="12.6116" gradientUnits="userSpaceOnUse">
<stop stop-color="#0082FB"/>
<stop offset="1" stop-color="#0081FA"/>
</linearGradient>
<linearGradient id="paint8_linear_1_84" x1="29.4178" y1="12.9718" x2="27.7647" y2="16.3259" gradientUnits="userSpaceOnUse">
<stop offset="0.1" stop-color="#0081FA"/>
<stop offset="1" stop-color="#0080F9"/>
</linearGradient>
<linearGradient id="paint9_linear_1_84" x1="26.447" y1="18.099" x2="28.0043" y2="17.0448" gradientUnits="userSpaceOnUse">
<stop stop-color="#027AF3"/>
<stop offset="1" stop-color="#0080F9"/>
</linearGradient>
<linearGradient id="paint10_linear_1_84" x1="24.0272" y1="18.2906" x2="26.1834" y2="18.2906" gradientUnits="userSpaceOnUse">
<stop stop-color="#0377EF"/>
<stop offset="1" stop-color="#0279F1"/>
</linearGradient>
<linearGradient id="paint11_linear_1_84" x1="22.1584" y1="17.1172" x2="23.6918" y2="18.0276" gradientUnits="userSpaceOnUse">
<stop stop-color="#0471E9"/>
<stop offset="1" stop-color="#0377EF"/>
</linearGradient>
<linearGradient id="paint12_linear_1_84" x1="17.4386" y1="10.4318" x2="22.3741" y2="16.637" gradientUnits="userSpaceOnUse">
<stop offset="0.3" stop-color="#0867DF"/>
<stop offset="1" stop-color="#0471E9"/>
</linearGradient>
<clipPath id="clip0_1_84">
<rect width="32.5833" height="23" fill="white" transform="translate(0.5 0.25)"/>
</clipPath>
</defs>
</svg>
